<?xml version="1.0" standalone="no"?>
<!DOCTYPE svg PUBLIC "-//W3C//DTD SVG 20010904//EN"
 "http://www.w3.org/TR/2001/REC-SVG-20010904/DTD/svg10.dtd">
<svg version="1.0" xmlns="http://www.w3.org/2000/svg"
 width="960.000000pt" height="960.000000pt" viewBox="0 0 960.000000 960.000000"
 preserveAspectRatio="xMidYMid meet">
<metadata>
Created by potrace 1.14, written by Peter Selinger 2001-2017
</metadata>
<g transform="translate(0.000000,960.000000) scale(0.100000,-0.100000)"
fill="#000000" stroke="none">
<path d="M2710 8559 c113 -104 179 -164 225 -207 46 -43 183 -167 239 -217 36
-32 176 -158 201 -180 27 -25 150 -134 179 -158 12 -10 46 -40 76 -67 66 -58
88 -77 159 -138 30 -26 66 -57 79 -70 14 -12 46 -40 71 -61 25 -22 56 -48 67
-58 12 -10 40 -34 63 -53 24 -19 55 -46 70 -60 16 -14 50 -43 76 -65 68 -56
92 -76 124 -105 16 -14 50 -43 77 -65 26 -22 67 -56 90 -75 22 -19 65 -55 94
-79 29 -25 58 -50 64 -56 17 -18 55 -36 83 -41 14 -3 28 -6 32 -6 8 -2 93 16
106 22 3 1 8 3 13 4 46 11 86 36 163 101 19 16 53 45 75 63 127 105 186 155
204 172 8 8 40 35 70 60 58 47 192 161 200 171 3 3 32 27 65 55 88 73 104 86
137 116 16 15 47 42 69 60 22 18 53 44 67 58 15 14 47 41 71 60 24 19 62 51
85 72 95 84 135 119 206 180 41 35 125 106 185 159 61 52 123 106 139 120 114
97 316 298 306 304 -6 3 -14 3 -20 0 -5 -3 -24 -8 -42 -10 -18 -3 -44 -7 -58
-10 -46 -9 -134 -24 -180 -30 -25 -3 -52 -8 -60 -10 -8 -2 -37 -6 -65 -10 -57
-7 -99 -13 -152 -21 -64 -9 -96 -13 -148 -18 -28 -3 -66 -8 -85 -11 -19 -3
-57 -7 -85 -9 -27 -3 -75 -7 -105 -10 -92 -9 -181 -17 -260 -22 -41 -2 -104
-7 -140 -9 -268 -19 -817 -24 -1140 -11 -206 9 -305 14 -305 16 0 1 -29 3 -65
5 -36 2 -94 6 -130 10 -36 3 -85 8 -110 10 -25 3 -61 7 -80 9 -19 2 -65 7
-102 10 -37 4 -77 9 -90 11 -13 3 -45 7 -73 10 -27 3 -63 7 -80 9 -16 2 -51 7
-77 9 -26 3 -51 8 -55 10 -5 3 -35 7 -68 11 -58 6 -82 10 -135 21 -14 3 -41 7
-60 10 -19 3 -71 11 -115 19 -44 9 -93 18 -110 21 -16 3 -41 8 -55 10 -22 5
-19 0 20 -36z"/>
<path d="M28 8507 c-30 -28 -33 -20 85 -200 42 -65 77 -120 77 -123 0 -3 6
-11 13 -19 10 -11 393 -604 422 -653 6 -9 28 -44 49 -77 113 -173 199 -307
211 -328 5 -9 66 -104 135 -209 69 -106 131 -205 139 -220 7 -16 17 -28 22
-28 5 0 9 -6 9 -13 0 -8 9 -22 20 -32 11 -10 17 -22 14 -26 -3 -5 2 -12 10
-15 9 -3 16 -11 16 -17 0 -6 20 -40 44 -76 118 -179 198 -304 208 -326 6 -14
15 -25 20 -25 4 0 8 -7 8 -15 0 -8 5 -15 10 -15 6 0 10 -7 10 -15 0 -8 5 -15
10 -15 6 0 10 -4 10 -9 0 -8 128 -213 153 -246 26 -34 159 -243 164 -257 3
-10 9 -18 13 -18 4 0 10 -8 14 -17 5 -17 21 -44 39 -67 32 -41 197 -303 197
-313 0 -6 4 -13 8 -15 12 -4 72 -95 72 -107 0 -6 4 -11 8 -11 5 0 16 -15 25
-32 19 -38 39 -71 47 -78 5 -5 104 -156 140 -214 65 -106 156 -246 181 -280 8
-11 19 -28 22 -36 6 -12 131 -207 167 -260 58 -85 870 -1355 870 -1361 0 -5 4
-9 9 -9 5 0 16 -15 25 -32 9 -18 48 -80 87 -138 38 -58 72 -112 76 -120 4 -8
9 -17 13 -20 3 -3 37 -54 75 -115 84 -133 112 -177 123 -190 4 -5 36 -55 70
-110 35 -55 94 -147 132 -205 38 -58 86 -133 106 -167 21 -35 42 -63 47 -63 4
0 5 -5 2 -10 -3 -6 -2 -10 3 -10 5 0 15 -12 22 -27 8 -16 31 -53 51 -83 19
-30 56 -86 81 -125 24 -38 70 -108 100 -156 31 -47 62 -97 69 -111 10 -23 38
-45 44 -36 1 2 32 53 70 113 38 61 79 124 92 141 13 17 23 34 23 38 0 4 11 22
25 40 14 18 25 38 25 44 0 6 4 12 8 14 10 4 532 817 532 829 0 5 4 9 9 9 5 0
13 9 16 20 3 11 12 26 18 32 20 21 227 348 227 359 0 5 4 9 8 9 5 0 17 16 28
35 10 19 22 35 26 35 5 0 7 3 6 8 -1 4 20 41 46 82 27 41 74 113 104 160 96
148 138 214 167 260 15 25 33 48 39 52 6 4 7 8 2 8 -5 0 -2 8 6 18 24 26 218
332 218 343 0 5 4 9 8 9 5 0 15 12 23 28 8 15 17 29 20 32 3 3 23 34 45 70 21
36 42 67 45 70 3 3 12 16 19 29 7 14 17 30 22 35 5 6 30 45 55 86 26 41 50 77
54 80 3 3 8 10 10 15 4 10 57 94 240 378 26 40 73 114 105 164 32 51 62 93 66
93 5 0 8 5 8 12 0 13 121 201 133 206 4 2 5 8 1 13 -3 5 2 12 10 15 9 3 16 10
16 15 0 5 48 83 108 175 59 91 112 173 117 182 6 9 25 39 43 67 48 73 47 72
112 175 33 52 64 100 70 107 5 7 15 24 22 38 6 14 15 25 20 25 4 0 8 7 8 15 0
8 3 15 8 15 4 0 13 14 20 30 8 17 19 36 25 43 19 20 67 96 67 106 0 5 4 11 8
13 4 2 30 38 58 81 27 43 56 89 64 102 8 13 28 45 44 71 16 27 33 53 38 59 15
18 78 114 78 119 0 2 35 57 78 122 69 105 128 197 165 259 7 10 17 25 24 32 6
7 15 22 18 33 3 11 10 20 14 20 5 0 14 14 21 30 7 17 16 30 21 30 5 0 9 4 9
10 0 5 27 51 60 102 33 51 65 100 70 108 5 8 30 46 55 83 25 38 45 70 45 72 0
2 17 30 38 62 82 123 148 228 148 233 -1 3 5 12 12 20 8 8 47 67 88 130 41 63
79 122 84 130 6 8 66 103 134 210 69 107 128 200 133 206 18 23 34 50 39 67 4
9 10 17 14 17 22 0 16 33 -11 60 -37 36 -37 36 -69 7 -14 -12 -56 -49 -95 -82
-38 -33 -77 -68 -86 -77 -9 -10 -21 -18 -27 -18 -6 0 -12 -4 -14 -8 -1 -5 -43
-44 -93 -86 -49 -43 -101 -88 -115 -100 -14 -13 -52 -45 -85 -73 -86 -71 -122
-103 -167 -145 -22 -21 -44 -38 -48 -38 -5 0 -13 -6 -17 -12 -4 -7 -35 -35
-68 -63 -33 -27 -70 -59 -81 -70 -19 -17 -52 -46 -151 -130 -13 -11 -38 -33
-57 -50 -18 -16 -47 -41 -64 -55 -18 -14 -54 -45 -81 -70 -27 -25 -59 -54 -72
-64 -47 -38 -252 -214 -287 -246 -9 -9 -80 -70 -157 -135 -77 -66 -142 -122
-145 -125 -4 -5 -124 -108 -173 -150 -10 -8 -28 -23 -39 -32 -12 -10 -25 -18
-30 -18 -4 0 -8 -7 -8 -15 0 -8 -6 -15 -14 -15 -8 0 -16 -4 -18 -8 -1 -5 -68
-65 -148 -133 -80 -68 -146 -127 -148 -131 -2 -5 -10 -8 -18 -8 -9 0 -12 -4
-9 -10 3 -5 3 -10 -2 -10 -4 0 -24 -14 -43 -31 -19 -17 -50 -44 -68 -60 -19
-16 -38 -29 -43 -29 -5 0 -9 -3 -9 -8 0 -4 -34 -37 -77 -72 -42 -36 -86 -74
-98 -85 -13 -11 -42 -36 -66 -56 -24 -21 -56 -48 -70 -60 -14 -13 -39 -35 -55
-49 -16 -14 -61 -52 -99 -85 -39 -33 -76 -64 -83 -70 -6 -5 -27 -23 -46 -40
-18 -16 -59 -52 -92 -80 -32 -27 -65 -57 -74 -65 -9 -8 -45 -39 -81 -69 -35
-30 -71 -62 -80 -70 -8 -9 -33 -29 -54 -46 -21 -16 -48 -39 -59 -50 -12 -11
-46 -40 -76 -65 -29 -25 -65 -55 -79 -68 -55 -50 -70 -63 -181 -158 -153 -132
-146 -125 -180 -155 -16 -14 -50 -44 -76 -65 -26 -21 -59 -50 -74 -64 -16 -14
-47 -41 -70 -60 -23 -19 -57 -50 -76 -68 -19 -17 -37 -32 -41 -32 -3 0 -13 -8
-22 -18 -27 -29 -91 -82 -100 -82 -4 0 -19 9 -32 21 -13 11 -46 39 -73 62 -27
23 -54 47 -60 52 -6 6 -108 94 -226 195 -118 102 -226 195 -240 207 -14 12
-36 31 -50 43 -34 29 -128 110 -156 135 -12 11 -46 40 -75 65 -30 25 -64 55
-77 68 -12 12 -25 22 -27 22 -3 0 -13 8 -23 18 -10 9 -44 40 -76 67 -33 28
-64 55 -70 60 -6 6 -47 41 -91 79 -44 38 -104 89 -134 115 -29 25 -69 60 -87
76 -18 17 -46 40 -61 52 -15 12 -42 34 -59 50 -17 15 -55 48 -84 73 -65 54
-98 83 -125 108 -11 10 -49 43 -85 73 -36 30 -69 59 -75 65 -5 6 -41 37 -80
70 -38 32 -72 61 -75 64 -3 3 -34 30 -70 60 -61 52 -105 90 -156 135 -12 11
-43 38 -69 60 -25 21 -57 48 -70 60 -12 11 -47 40 -76 65 -29 25 -63 55 -76
67 -12 12 -31 27 -41 35 -18 12 -141 120 -168 146 -7 6 -15 12 -17 12 -2 0
-25 19 -50 43 -26 23 -52 47 -59 52 -7 6 -47 39 -88 75 -41 36 -88 76 -104 90
-16 14 -42 36 -57 50 -15 14 -46 41 -69 59 -24 19 -48 40 -54 46 -6 5 -42 37
-81 70 -38 33 -72 62 -75 65 -3 3 -36 32 -75 65 -38 33 -75 64 -81 70 -6 5
-33 29 -60 52 -27 23 -60 51 -74 63 -14 12 -47 40 -75 63 -27 23 -56 49 -65
57 -13 13 -185 161 -236 203 -8 6 -25 21 -37 33 -21 20 -285 247 -336 289 -13
11 -34 29 -45 40 -40 37 -144 125 -149 125 -2 0 -15 -10 -29 -23z"/>
</g>
</svg>
